# xmcd
#
# Track frame offsets:
#	182
#	13825
#	27230
#	38587
#	54455
#	67960
#	80772
#	95487
#	109705
#	123565
#	136397
#	151632
#	163192
#	176242
#	189142
#	201345
#
# Disc length: 2875 seconds
#
# Revision: 8
# Processed by: cddbd v1.5.2PL0 Copyright (c) Steve Scherf et al.
# Submitted via: EZCDAudioConverter 1.5.4.1
#
DISCID=d30b3910
DTITLE=Various Artist - History Of The Blues - CD TWO
DYEAR=1991
DGENRE=Blues
TTITLE0=Jesse James - Lonesome Day Blues
TTITLE1=Bumble Bee Slim - Ramblin' With That Woman
TTITLE2=Robert Johnson - Dead Shrimp Blues
TTITLE3=Big Bill Broonzy - I'm A Prowlin' Hound Dog
TTITLE4=Rosetta Howard - Rosetta Blues
TTITLE5=Ollie Shepard - She Walks Like A Kangaroo
TTITLE6=Jimmy Rushing - Good Morning Blues
TTITLE7=Sleepy John Estes - Vernita Blues
TTITLE8=Kokomo Arnold - Red Beans And Rice
TTITLE9=Cow Cow Davenport - I Ain No Iceman
TTITLE10=Rosetta Crawford - My Man Jumped Salty On Me
TTITLE11=Blind John Davis - Reckless Life Blues
TTITLE12=Big Maceo - Texas Blues
TTITLE13=Blind Boy Fuller - Thousand Women Blues
TTITLE14=Lil Green - What Have I Done
TTITLE15=Billie Holiday - Billie's Blues
EXTD=
EXTT0=
EXTT1=
EXTT2=
EXTT3=
EXTT4=
EXTT5=
EXTT6=
EXTT7=
EXTT8=
EXTT9=
EXTT10=
EXTT11=
EXTT12=
EXTT13=
EXTT14=
EXTT15=
PLAYORDER=
